:FULLY-SPECIFIED
:FORCE-ALL-JOINTS-BE-3DOF
:DEGREES
1053
root 1.2103 15.1596 32.5572 4.90766 -3.43257 363.454
lfemur 8.71865 0.504538 5.6217
ltibia 0.191307 0 0
lfoot -30.4871 -11.1922 0
ltoes -34.189 0 0
rfemur -31.0565 -15.6476 -6.32882
rtibia 49.9972 0 0
rfoot -21.8474 5.46027 0
rtoes -40.9031 0 0
lowerback -1.84026 -0.0542173 -0.276292
upperback -0.487808 -0.0339028 -6.04095
thorax 0.527833 -0.0186435 -6.10635
lowerneck -6.97879 0.755069 6.56441
upperneck 1.24282 0.325295 3.6559
head 1.5753 0.287035 0.0495991
lclavicle -5.4669e-15 4.60705e-14 0
lhumerus -58.6996 -46.8399 115.409
lradius 55.8002 0 0
lwrist 25.5377 0 0
lhand 37.4268 25.3286 0
lfingers 7.12502 0 0
lthumb 60.23 38.8651 0
rclavicle -5.4669e-15 4.60705e-14 0
rhumerus 2.1542 -23.4973 0.613376
rradius 27.4946 0 0
rwrist -9.71022 0 0
rhand -30.5385 -42.0198 0
rfingers 7.12502 0 0
rthumb -3.83746 -791.965 0
1054
root 1.2134 15.16 32.5633 4.91294 -3.43658 363.442
lfemur 8.69206 0.513235 5.6053
ltibia 0.28696 0 0
lfoot -30.5469 -11.1732 0
ltoes -34.1892 0 0
rfemur -31.0233 -15.6199 -6.33643
rtibia 49.9735 0 0
rfoot -21.8381 5.45683 0
rtoes -40.875 0 0
lowerback -1.85743 -0.0548951 -0.293557
upperback -0.489007 -0.0339729 -6.03377
thorax 0.53627 -0.0185899 -6.08886
lowerneck -6.98062 0.751056 6.55854
upperneck 1.24628 0.31993 3.66101
head 1.57664 0.284587 0.0520112
lclavicle -5.09162e-15 4.50609e-14 0
lhumerus -58.6922 -46.8393 115.417
lradius 55.7968 0 0
lwrist 25.5454 0 0
lhand 37.4343 25.3303 0
lfingers 7.12502 0 0
lthumb 60.2364 38.8599 0
rclavicle -5.09162e-15 4.50609e-14 0
rhumerus 2.13971 -23.4694 0.618262
rradius 27.4977 0 0
rwrist -9.68282 0 0
rhand -30.5462 -41.9931 0
rfingers 7.12502 0 0
rthumb -3.84496 -791.938 0
1055
root 1.21619 15.1604 32.5688 4.91771 -3.4407 363.43
lfemur 8.66417 0.521775 5.58969
ltibia 0.382613 0 0
lfoot -30.6054 -11.1529 0
ltoes -34.1908 0 0
rfemur -30.9926 -15.5946 -6.34224
rtibia 49.951 0 0
rfoot -21.8308 5.45291 0
rtoes -40.8522 0 0
lowerback -1.87288 -0.0557778 -0.30847
upperback -0.490385 -0.0344284 -6.02635
thorax 0.543518 -0.0187493 -6.07248
lowerneck -6.98352 0.747827 6.55162
upperneck 1.25252 0.315475 3.66579
head 1.57909 0.28269 0.0545302
lclavicle -4.58176e-15 4.39381e-14 0
lhumerus -58.6844 -46.8375 115.425
lradius 55.7928 0 0
lwrist 25.5514 0 0
lhand 37.4413 25.3303 0
lfingers 7.12502 0 0
lthumb 60.2424 38.8535 0
rclavicle -4.58176e-15 4.39381e-14 0
rhumerus 2.12868 -23.4435 0.620655
rradius 27.5008 0 0
rwrist -9.65654 0 0
rhand -30.5545 -41.9702 0
rfingers 7.12502 0 0
rthumb -3.85293 -791.915 0
1056
root 1.21868 15.1609 32.5739 4.92202 -3.44493 363.419
lfemur 8.6351 0.530174 5.5748
ltibia 0.478267 0 0
lfoot -30.6627 -11.1315 0
ltoes -34.1937 0 0
rfemur -30.964 -15.5713 -6.3464
rtibia 49.9296 0 0
rfoot -21.8252 5.44856 0
rtoes -40.8342 0 0
lowerback -1.88679 -0.0568469 -0.321246
upperback -0.491924 -0.0352343 -6.01871
thorax 0.549686 -0.0191023 -6.0571
lowerneck -6.98739 0.745312 6.54377
upperneck 1.26129 0.311847 3.67027
head 1.58255 0.281294 0.0571464
lclavicle -3.94955e-15 4.27122e-14 0
lhumerus -58.6764 -46.8347 115.433
lradius 55.7882 0 0
lwrist 25.5558 0 0
lhand 37.4478 25.3289 0
lfingers 7.12502 0 0
lthumb 60.248 38.8461 0
rclavicle -3.94955e-15 4.27122e-14 0
rhumerus 2.12079 -23.4193 0.620781
rradius 27.5038 0 0
rwrist -9.63128 0 0
rhand -30.5632 -41.9509 0
rfingers 7.12502 0 0
rthumb -3.86133 -791.896 0
1057
root 1.22092 15.1613 32.5786 4.92591 -3.44925 363.408
lfemur 8.60497 0.538446 5.56054
ltibia 0.57392 0 0
lfoot -30.719 -11.1091 0
ltoes -34.1977 0 0
rfemur -30.9375 -15.5498 -6.34909
rtibia 49.9091 0 0
rfoot -21.8211 5.44381 0
rtoes -40.8206 0 0
lowerback -1.89929 -0.0580837 -0.332098
upperback -0.493608 -0.0363555 -6.01088
thorax 0.554881 -0.0196296 -6.04261
lowerneck -6.99213 0.743439 6.53508
upperneck 1.27235 0.308964 3.67447
head 1.58692 0.280351 0.0598502
lclavicle -3.20722e-15 4.13936e-14 0
lhumerus -58.6681 -46.831 115.44
lradius 55.7831 0 0
lwrist 25.5589 0 0
lhand 37.454 25.3262 0
lfingers 7.12502 0 0
lthumb 60.2532 38.8378 0
rclavicle -3.20722e-15 4.13936e-14 0
rhumerus 2.11575 -23.3966 0.618867
rradius 27.5069 0 0
rwrist -9.60694 0 0
rhand -30.5723 -41.9346 0
rfingers 7.12502 0 0
rthumb -3.87012 -791.879 0
1058
root 1.22292 15.1617 32.5829 4.92942 -3.45366 363.397
lfemur 8.5739 0.546604 5.54686
ltibia 0.669573 0 0
lfoot -30.7743 -11.0858 0
ltoes -34.2027 0 0
rfemur -30.9127 -15.5301 -6.35047
rtibia 49.8895 0 0
rfoot -21.8185 5.43872 0
rtoes -40.8108 0 0
lowerback -1.91054 -0.0594695 -0.34124
upperback -0.495421 -0.0377571 -6.00287
thorax 0.559212 -0.0203119 -6.02893
lowerneck -6.99764 0.742137 6.52563
upperneck 1.28542 0.306744 3.67844
head 1.59209 0.279809 0.0626319
lclavicle -2.36702e-15 3.99925e-14 0
lhumerus -58.6596 -46.8264 115.447
lradius 55.7776 0 0
lwrist 25.5607 0 0
lhand 37.4598 25.3223 0
lfingers 7.12502 0 0
lthumb 60.2582 38.8286 0
rclavicle -2.36702e-15 3.99925e-14 0
rhumerus 2.11322 -23.3753 0.615139
rradius 27.51 0 0
rwrist -9.58342 0 0
rhand -30.5818 -41.9211 0
rfingers 7.12502 0 0
rthumb -3.87926 -791.866 0
1059
root 1.22471 15.1622 32.5869 4.93262 -3.45813 363.386
lfemur 8.542 0.554663 5.53368
ltibia 0.765227 0 0
lfoot -30.8288 -11.0616 0
ltoes -34.2086 0 0
rfemur -30.8894 -15.5118 -6.35069
rtibia 49.8706 0 0
rfoot -21.8171 5.43331 0
rtoes -40.8044 0 0
lowerback -1.92071 -0.0609857 -0.348886
upperback -0.497348 -0.039404 -5.99471
thorax 0.562786 -0.0211296 -6.01595
lowerneck -7.00383 0.741335 6.51553
upperneck 1.30027 0.305102 3.68219
head 1.59798 0.279617 0.0654816
lclavicle -1.44117e-15 3.85194e-14 0
lhumerus -58.6509 -46.8212 115.454
lradius 55.7716 0 0
lwrist 25.5615 0 0
lhand 37.4653 25.3175 0
lfingers 7.12502 0 0
lthumb 60.2629 38.8187 0
rclavicle -1.44117e-15 3.85194e-14 0
rhumerus 2.1129 -23.3553 0.609824
rradius 27.5131 0 0
rwrist -9.56062 0 0
rhand -30.5915 -41.9101 0
rfingers 7.12502 0 0
rthumb -3.8887 -791.855 0
1060
root 1.22633 15.1626 32.5905 4.93554 -3.46267 363.375
lfemur 8.50939 0.562637 5.52093
ltibia 0.86088 0 0
lfoot -30.8826 -11.0368 0
ltoes -34.2152 0 0
rfemur -30.8674 -15.4948 -6.34993
rtibia 49.8524 0 0
rfoot -21.8168 5.42765 0
rtoes -40.8009 0 0
lowerback -1.92995 -0.0626138 -0.355249
upperback -0.499372 -0.0412611 -5.98642
thorax 0.565712 -0.0220636 -6.00356
lowerneck -7.01059 0.740961 6.50486
upperneck 1.31663 0.303957 3.68576
head 1.60446 0.279727 0.0683896
lclavicle -4.41914e-16 3.69844e-14 0
lhumerus -58.6421 -46.8153 115.461
lradius 55.7654 0 0
lwrist 25.5613 0 0
lhand 37.4706 25.3117 0
lfingers 7.12502 0 0
lthumb 60.2673 38.8082 0
rclavicle -4.41914e-16 3.69844e-14 0
rhumerus 2.11446 -23.3362 0.603149
rradius 27.5162 0 0
rwrist -9.53843 0 0
rhand -30.6016 -41.9012 0
rfingers 7.12502 0 0
rthumb -3.89839 -791.845 0
1061
root 1.22781 15.163 32.594 4.93822 -3.46726 363.364
lfemur 8.4762 0.57054 5.50853
ltibia 0.956533 0 0
lfoot -30.9359 -11.0115 0
ltoes -34.2224 0 0
rfemur -30.8466 -15.4788 -6.34836
rtibia 49.8347 0 0
rfoot -21.8173 5.42177 0
rtoes -40.7999 0 0
lowerback -1.93841 -0.064335 -0.360543
upperback -0.501476 -0.0432934 -5.97802
thorax 0.568098 -0.0230944 -5.99168
lowerneck -7.01785 0.740943 6.49373
upperneck 1.33427 0.303225 3.68919
head 1.61145 0.280088 0.0713463
lclavicle 6.18517e-16 3.53979e-14 0
lhumerus -58.633 -46.809 115.468
lradius 55.7589 0 0
lwrist 25.5604 0 0
lhand 37.4756 25.3053 0
lfingers 7.12502 0 0
lthumb 60.2716 38.7972 0
rclavicle 6.18517e-16 3.53979e-14 0
rhumerus 2.1176 -23.318 0.59534
rradius 27.5193 0 0
rwrist -9.51675 0 0
rhand -30.6118 -41.894 0
rfingers 7.12502 0 0
rthumb -3.90831 -791.838 0
1062
root 1.22917 15.1635 32.5972 4.94072 -3.47189 363.353
lfemur 8.44253 0.578386 5.49642
ltibia 1.05219 0 0
lfoot -30.9886 -10.9856 0
ltoes -34.2302 0 0
rfemur -30.8266 -15.4636 -6.34612
rtibia 49.8174 0 0
rfoot -21.8185 5.41571 0
rtoes -40.8007 0 0
lowerback -1.94624 -0.0661307 -0.364982
upperback -0.503645 -0.0454659 -5.96954
thorax 0.570051 -0.0242026 -5.98019
lowerneck -7.02549 0.741211 6.48221
upperneck 1.35291 0.302825 3.69249
head 1.61885 0.28065 0.0743419
lclavicle 1.72789e-15 3.37702e-14 0
lhumerus -58.6239 -46.8022 115.474
lradius 55.7521 0 0
lwrist 25.5589 0 0
lhand 37.4804 25.2983 0
lfingers 7.12502 0 0
lthumb 60.2757 38.7858 0
rclavicle 1.72789e-15 3.37702e-14 0
rhumerus 2.122 -23.3006 0.586625
rradius 27.5223 0 0
rwrist -9.49548 0 0
rhand -30.6223 -41.8882 0
rfingers 7.12502 0 0
rthumb -3.91839 -791.832 0
1063
root 1.23044 15.1639 32.6003 4.94308 -3.47655 363.342
lfemur 8.40851 0.58619 5.48453
ltibia 1.14784 0 0
lfoot -31.041 -10.9594 0
ltoes -34.2383 0 0
rfemur -30.8073 -15.4491 -6.34339
rtibia 49.8005 0 0
rfoot -21.8203 5.40952 0
rtoes -40.803 0 0
lowerback -1.95361 -0.0679823 -0.36878
upperback -0.505863 -0.0477435 -5.96099
thorax 0.571681 -0.0253689 -5.96901
lowerneck -7.03342 0.741694 6.47042
upperneck 1.37231 0.302673 3.6957
head 1.62655 0.281362 0.0773667
lclavicle 2.87396e-15 3.21116e-14 0
lhumerus -58.6147 -46.7951 115.48
lradius 55.7452 0 0
lwrist 25.5569 0 0
lhand 37.4851 25.2908 0
lfingers 7.12502 0 0
lthumb 60.2797 38.774 0
rclavicle 2.87396e-15 3.21116e-14 0
rhumerus 2.12735 -23.2836 0.577229
rradius 27.5254 0 0
rwrist -9.47452 0 0
rhand -30.6329 -41.8835 0
rfingers 7.12502 0 0
rthumb -3.92861 -791.827 0
1064
root 1.23166 15.1643 32.6033 4.94535 -3.48124 363.332
lfemur 8.37425 0.593966 5.47278
ltibia 1.24349 0 0
lfoot -31.0932 -10.933 0
ltoes -34.2467 0 0
rfemur -30.7884 -15.4349 -6.34034
rtibia 49.7837 0 0
rfoot -21.8224 5.40324 0
rtoes -40.8063 0 0
lowerback -1.96067 -0.0698711 -0.372151
upperback -0.508112 -0.0500912 -5.95239
thorax 0.573094 -0.026574 -5.95802
lowerneck -7.04154 0.742318 6.45844
upperneck 1.39222 0.302686 3.69885
head 1.63445 0.282174 0.080411
lclavicle 4.04451e-15 3.04323e-14 0
lhumerus -58.6055 -46.7878 115.486
lradius 55.7382 0 0
lwrist 25.5546 0 0
lhand 37.4897 25.2831 0
lfingers 7.12502 0 0
lthumb 60.2837 38.7621 0
rclavicle 4.04451e-15 3.04323e-14 0
rhumerus 2.13332 -23.267 0.56738
rradius 27.5285 0 0
rwrist -9.45376 0 0
rhand -30.6435 -41.8795 0
rfingers 7.12502 0 0
rthumb -3.93891 -791.823 0
